<?xml version="1.0" encoding="utf-8" standalone="no"?>
<!DOCTYPE svg PUBLIC "-//W3C//DTD SVG 1.1//EN"
  "http://www.w3.org/Graphics/SVG/1.1/DTD/svg11.dtd">
<svg xmlns:xlink="http://www.w3.org/1999/xlink" width="758.88pt" height="129.456pt" viewBox="0 0 758.88 129.456" xmlns="http://www.w3.org/2000/svg" version="1.1">
 <metadata>
  <rdf:RDF xmlns:dc="http://purl.org/dc/elements/1.1/" xmlns:cc="http://creativecommons.org/ns#" xmlns:rdf="http://www.w3.org/1999/02/22-rdf-syntax-ns#">
   <cc:Work>
    <dc:type rdf:resource="http://purl.org/dc/dcmitype/StillImage"/>
    <dc:date>2026-06-11T22:39:52.787847</dc:date>
    <dc:format>image/svg+xml</dc:format>
    <dc:creator>
     <cc:Agent>
      <dc:title>Matplotlib v3.10.9, https://matplotlib.org/</dc:title>
     </cc:Agent>
    </dc:creator>
   </cc:Work>
  </rdf:RDF>
 </metadata>
 <defs>
  <style type="text/css">*{stroke-linejoin: round; stroke-linecap: butt}</style>
 </defs>
 <g id="figure_1">
  <g id="patch_1">
   <path d="M 0 129.456 
L 758.88 129.456 
L 758.88 0 
L 0 0 
z
" style="fill: #ffffff"/>
  </g>
  <g id="axes_1">
   <g id="line2d_1">
    <path d="M 165.735928 9.476629 
L 166.950158 11.693803 
L 167.982538 14.066435 
L 168.838507 16.577591 
L 169.589296 19.509636 
L 170.136466 22.568564 
L 170.487479 25.731148 
L 170.655935 29.301991 
L 170.605996 32.939236 
L 170.314106 36.946542 
L 169.787015 40.955941 
L 169.037615 44.927294 
L 168.078797 48.820464 
L 166.923451 52.595314 
L 165.584468 56.211704 
L 164.07474 59.629498 
L 162.551837 62.553734 
L 160.906221 65.246449 
L 159.147823 67.676729 
L 157.459764 69.632325 
L 155.694163 71.322253 
L 154.044988 72.596844 
L 152.344484 73.620496 
L 150.79423 74.306056 
L 149.211537 74.76807 
L 147.600223 74.994648 
L 143.110441 75.13087 
L 139.838352 75.029331 
L 137.129636 74.722457 
L 134.575167 74.20396 
L 132.011039 73.449943 
L 129.270079 72.401831 
L 126.289984 71.017787 
L 122.857977 69.17016 
L 118.857633 66.756905 
L 114.268979 63.731491 
L 111.764904 61.822075 
L 108.217113 58.808465 
L 100.391394 52.07881 
L 97.332924 49.774274 
L 94.663881 48.030324 
L 92.255351 46.71443 
L 89.961714 45.718845 
L 87.792079 45.030227 
L 85.755029 44.623768 
L 83.858587 44.465949 
L 81.934077 44.532973 
L 80.160012 44.804869 
L 78.362459 45.292311 
L 76.54128 46.009454 
L 74.696338 46.970453 
L 73.228007 47.948855 
L 72.12283 48.943942 
L 71.240074 50.02967 
L 70.571983 51.200073 
L 70.110806 52.449183 
L 69.848788 53.771033 
L 69.778175 55.159657 
L 69.927366 56.856151 
L 70.314215 58.625934 
L 70.92641 60.45953 
L 71.886201 62.621052 
L 73.105862 64.839401 
L 74.765722 67.385358 
L 76.70505 69.965198 
L 79.155803 72.846931 
L 81.883375 75.718005 
L 85.160589 78.830905 
L 88.681543 81.860712 
L 92.398459 84.770658 
L 96.263559 87.523973 
L 100.229065 90.083887 
L 104.2472 92.413631 
L 108.270186 94.476436 
L 111.891451 96.089132 
L 115.441343 97.423203 
L 118.545554 98.362812 
L 121.536708 99.03422 
L 124.079446 99.389591 
L 126.4938 99.502993 
L 128.486596 99.392611 
L 130.547995 99.040594 
L 133.02495 98.38366 
L 135.065012 97.623189 
L 136.857425 96.718656 
L 138.312647 95.748192 
L 139.57828 94.650571 
L 140.665852 93.424377 
L 141.586894 92.068196 
L 142.405771 90.460698 
L 143.059282 88.699035 
L 143.592327 86.638455 
L 144.009303 84.083988 
L 144.261632 81.122091 
L 144.3502 77.327301 
L 144.231016 72.325441 
L 143.773294 63.961567 
L 143.532755 62.146842 
L 143.108624 60.569142 
L 142.517885 59.208226 
L 141.777521 58.043853 
L 140.904514 57.055781 
L 139.799596 56.140079 
L 138.44707 55.322199 
L 136.843123 54.614107 
L 134.709439 53.927978 
L 131.037301 53.035122 
L 127.800924 52.168599 
L 126.022277 51.471373 
L 124.672317 50.700743 
L 123.701214 49.89991 
L 122.967398 49.031322 
L 122.383993 48.001684 
L 121.967982 46.790757 
L 121.736348 45.378299 
L 121.706075 43.74407 
L 121.894145 41.867827 
L 122.37985 39.474652 
L 123.179379 36.729942 
L 124.445401 32.640981 
L 124.531031 31.268271 
L 124.393896 29.934566 
L 124.047973 28.643968 
L 123.42665 27.248679 
L 122.578675 25.918978 
L 121.523952 24.660707 
L 120.133763 23.353506 
L 118.540203 22.149709 
L 116.584978 20.954526 
L 114.453048 19.904819 
L 111.968475 18.938129 
L 109.364032 18.171099 
L 106.686897 17.617574 
L 103.984248 17.291395 
L 101.524699 17.20394 
L 99.119691 17.329815 
L 96.805565 17.679682 
L 94.811255 18.201088 
L 92.949387 18.924436 
L 91.409509 19.75473 
L 90.018926 20.760925 
L 88.924277 21.807712 
L 87.977294 23.002198 
L 87.191957 24.348486 
L 86.582242 25.850677 
L 84.952282 30.628284 
L 84.025404 32.335792 
L 82.982253 33.809577 
L 81.83551 35.071582 
L 80.469576 36.241372 
L 78.873838 37.289855 
L 77.045463 38.200434 
L 74.991689 38.972958 
L 72.276745 39.7439 
L 63.931438 41.926827 
L 62.127261 42.726457 
L 60.71262 43.589264 
L 59.542523 44.558268 
L 58.598572 45.612355 
L 57.781794 46.854045 
L 57.104868 48.305281 
L 56.580474 49.988009 
L 56.207496 52.012195 
L 55.974613 54.560729 
L 55.985474 56.795959 
L 56.217638 58.880576 
L 56.633563 60.688986 
L 57.241453 62.363628 
L 58.040918 63.903262 
L 59.031563 65.306646 
L 60.212997 66.572541 
L 61.584826 67.699707 
L 63.146659 68.686904 
L 64.898102 69.532892 
L 66.984612 70.281199 
L 69.287854 70.864456 
L 71.982988 71.302955 
L 74.923579 71.550077 
L 78.31625 71.600879 
L 81.984655 71.431325 
L 84.083427 71.176669 
L 85.916218 70.720137 
L 87.686928 70.057413 
L 89.388534 69.201477 
L 91.211497 68.023765 
L 92.928116 66.636431 
L 94.528393 65.057961 
L 96.002331 63.306836 
L 97.339931 61.40154 
L 98.654092 59.126207 
L 99.773878 56.708713 
L 100.685575 54.17441 
L 101.375469 51.548654 
L 101.795397 49.128236 
L 102.014558 46.672761 
L 102.022954 44.200711 
L 101.810587 41.730571 
L 101.367461 39.280822 
L 100.683577 36.869949 
L 99.86548 34.774528 
L 98.842233 32.737409 
L 97.606816 30.771573 
L 96.152205 28.890001 
L 94.47138 27.105675 
L 92.557318 25.431575 
L 90.402998 23.880684 
L 88.001399 22.465982 
L 85.691632 21.35004 
L 83.182462 20.357004 
L 80.469185 19.49557 
L 77.446668 18.772251 
L 74.96494 18.423888 
L 72.234419 18.263042 
L 69.262499 18.306578 
L 65.916343 18.585378 
L 62.361026 19.111926 
L 58.63209 19.891026 
L 54.775653 20.922414 
L 50.849523 22.200117 
L 46.924364 23.711779 
L 43.212682 25.376176 
L 40.170787 26.966095 
L 37.203248 28.784293 
L 33.954802 31.042064 
L 30.480415 33.73828 
L 26.98557 36.733508 
L 23.56209 39.955202 
L 20.319368 43.31139 
L 17.560356 46.476099 
L 15.326875 49.363151 
L 13.86263 51.547085 
L 13.86263 51.547085 
" clip-path="url(#pbcd0ad9cf6)" style="fill: none; stroke: #2c3e50; stroke-width: 2; stroke-linecap: round"/>
   </g>
   <g id="patch_2">
    <path d="M 108.335315 80.663078 
Q 69.946866 94.635331 33.554572 107.881043 
" style="fill: none; stroke: #8e44ad; stroke-width: 1.9; stroke-linecap: round"/>
    <path d="M 39.330226 108.545739 
L 33.554572 107.881043 
L 37.551722 103.659337 
z
" style="fill: #8e44ad; stroke: #8e44ad; stroke-width: 1.9; stroke-linecap: round"/>
   </g>
   <g id="text_1">
    <!-- χ = +1 -->
    <g style="fill: #2c3e50" transform="translate(65.362205 126.501823) scale(0.16 -0.16)">
     <defs>
      <path id="DejaVuSans-Bold-3c7" d="M 2134 2303 
L 2784 3500 
L 3969 3500 
L 2638 1047 
L 3128 -181 
Q 3228 -428 3339 -512 
Q 3450 -597 3619 -597 
L 3969 -597 
L 3969 -1331 
L 3447 -1331 
Q 2878 -1331 2581 -1098 
Q 2284 -866 2050 -281 
L 1994 -141 
L 1347 -1331 
L 163 -1331 
L 1491 1116 
L 997 2350 
Q 894 2606 778 2686 
Q 663 2766 513 2766 
L 163 2766 
L 163 3500 
L 809 3500 
Q 1219 3500 1525 3279 
Q 1831 3059 2075 2450 
L 2134 2303 
z
" transform="scale(0.015625)"/>
      <path id="DejaVuSans-Bold-20" transform="scale(0.015625)"/>
      <path id="DejaVuSans-Bold-3d" d="M 678 3084 
L 4684 3084 
L 4684 2350 
L 678 2350 
L 678 3084 
z
M 678 1663 
L 4684 1663 
L 4684 922 
L 678 922 
L 678 1663 
z
" transform="scale(0.015625)"/>
      <path id="DejaVuSans-Bold-2b" d="M 3053 4013 
L 3053 2375 
L 4684 2375 
L 4684 1638 
L 3053 1638 
L 3053 0 
L 2309 0 
L 2309 1638 
L 678 1638 
L 678 2375 
L 2309 2375 
L 2309 4013 
L 3053 4013 
z
" transform="scale(0.015625)"/>
      <path id="DejaVuSans-Bold-31" d="M 750 831 
L 1813 831 
L 1813 3847 
L 722 3622 
L 722 4441 
L 1806 4666 
L 2950 4666 
L 2950 831 
L 4013 831 
L 4013 0 
L 750 0 
L 750 831 
z
" transform="scale(0.015625)"/>
     </defs>
     <use xlink:href="#DejaVuSans-Bold-3c7"/>
     <use xlink:href="#DejaVuSans-Bold-20" transform="translate(64.501953 0)"/>
     <use xlink:href="#DejaVuSans-Bold-3d" transform="translate(99.316406 0)"/>
     <use xlink:href="#DejaVuSans-Bold-20" transform="translate(183.105469 0)"/>
     <use xlink:href="#DejaVuSans-Bold-2b" transform="translate(217.919922 0)"/>
     <use xlink:href="#DejaVuSans-Bold-31" transform="translate(301.708984 0)"/>
    </g>
   </g>
   <g id="line2d_2">
    <defs>
     <path id="mbc7b34c0af" d="M 0 4.5 
C 1.193414 4.5 2.338109 4.025852 3.181981 3.181981 
C 4.025852 2.338109 4.5 1.193414 4.5 0 
C 4.5 -1.193414 4.025852 -2.338109 3.181981 -3.181981 
C 2.338109 -4.025852 1.193414 -4.5 0 -4.5 
C -1.193414 -4.5 -2.338109 -4.025852 -3.181981 -3.181981 
C -4.025852 -2.338109 -4.5 -1.193414 -4.5 0 
C -4.5 1.193414 -4.025852 2.338109 -3.181981 3.181981 
C -2.338109 4.025852 -1.193414 4.5 0 4.5 
z
" style="stroke: #2c3e50; stroke-width: 1.8"/>
    </defs>
    <g clip-path="url(#pbcd0ad9cf6)">
     <use xlink:href="#mbc7b34c0af" x="165.735928" y="9.476629" style="fill: #ffffff; stroke: #2c3e50; stroke-width: 1.8"/>
    </g>
   </g>
   <g id="line2d_3">
    <g clip-path="url(#pbcd0ad9cf6)">
     <use xlink:href="#mbc7b34c0af" x="13.86263" y="51.547085" style="fill: #ffffff; stroke: #2c3e50; stroke-width: 1.8"/>
    </g>
   </g>
   <g id="patch_3">
    <path d="M 74.612146 67.25269 
Q 76.029221 69.102795 76.08661 69.177721 
" style="fill: none; stroke: #2c3e50; stroke-width: 2; stroke-linecap: round"/>
    <path d="M 74.819843 62.59021 
L 76.08661 69.177721 
L 70.056541 66.238628 
z
" style="fill: #2c3e50; stroke: #2c3e50; stroke-width: 2; stroke-linecap: round"/>
   </g>
   <g id="patch_4">
    <path d="M 74.984736 39.030438 
Q 72.73221 39.628025 72.640985 39.652227 
" style="fill: none; stroke: #2c3e50; stroke-width: 2; stroke-linecap: round"/>
    <path d="M 79.209647 41.013362 
L 72.640985 39.652227 
L 77.67109 35.213979 
z
" style="fill: #2c3e50; stroke: #2c3e50; stroke-width: 2; stroke-linecap: round"/>
   </g>
   <g id="patch_5">
    <path d="M 51.323224 21.997698 
Q 49.145278 22.826878 49.057075 22.860459 
" style="fill: none; stroke: #2c3e50; stroke-width: 2; stroke-linecap: round"/>
    <path d="M 55.731849 23.529324 
L 49.057075 22.860459 
L 53.597032 17.921958 
z
" style="fill: #2c3e50; stroke: #2c3e50; stroke-width: 2; stroke-linecap: round"/>
   </g>
   <g id="line2d_4">
    <defs>
     <path id="m88d477a16d" d="M 0 3 
C 0.795609 3 1.55874 2.683901 2.12132 2.12132 
C 2.683901 1.55874 3 0.795609 3 0 
C 3 -0.795609 2.683901 -1.55874 2.12132 -2.12132 
C 1.55874 -2.683901 0.795609 -3 0 -3 
C -0.795609 -3 -1.55874 -2.683901 -2.12132 -2.12132 
C -2.683901 -1.55874 -3 -0.795609 -3 0 
C -3 0.795609 -2.683901 1.55874 -2.12132 2.12132 
C -1.55874 2.683901 -0.795609 3 0 3 
z
" style="stroke: #ffffff; stroke-width: 0.9"/>
    </defs>
    <g clip-path="url(#pbcd0ad9cf6)">
     <use xlink:href="#m88d477a16d" x="93.941919" y="85.901846" style="fill: #2980b9; stroke: #ffffff; stroke-width: 0.9"/>
    </g>
   </g>
   <g id="line2d_5">
    <defs>
     <path id="m80790138cd" d="M 0 3.5 
C 0.928211 3.5 1.81853 3.131218 2.474874 2.474874 
C 3.131218 1.81853 3.5 0.928211 3.5 0 
C 3.5 -0.928211 3.131218 -1.81853 2.474874 -2.474874 
C 1.81853 -3.131218 0.928211 -3.5 0 -3.5 
C -0.928211 -3.5 -1.81853 -3.131218 -2.474874 -2.474874 
C -3.131218 -1.81853 -3.5 -0.928211 -3.5 0 
C -3.5 0.928211 -3.131218 1.81853 -2.474874 2.474874 
C -1.81853 3.131218 -0.928211 3.5 0 3.5 
z
" style="stroke: #2c3e50"/>
    </defs>
    <g clip-path="url(#pbcd0ad9cf6)">
     <use xlink:href="#m80790138cd" x="110.215518" y="79.97874" style="fill: #2c3e50; stroke: #2c3e50"/>
    </g>
   </g>
  </g>
  <g id="axes_2">
   <g id="line2d_6">
    <path d="M 355.318624 9.476629 
L 356.532854 11.693803 
L 357.565235 14.066435 
L 358.421203 16.577591 
L 359.171992 19.509636 
L 359.719163 22.568564 
L 360.070176 25.731148 
L 360.238632 29.301991 
L 360.188692 32.939236 
L 359.896802 36.946542 
L 359.369712 40.955941 
L 358.620312 44.927294 
L 357.661493 48.820464 
L 356.506147 52.595314 
L 355.167165 56.211704 
L 353.657436 59.629498 
L 352.134533 62.553734 
L 350.488918 65.246449 
L 348.730519 67.676729 
L 347.042461 69.632325 
L 345.276859 71.322253 
L 343.627684 72.596844 
L 341.92718 73.620496 
L 340.376926 74.306056 
L 338.794233 74.76807 
L 337.18292 74.994648 
L 332.693138 75.13087 
L 329.421049 75.029331 
L 326.712332 74.722457 
L 324.157864 74.20396 
L 321.593735 73.449943 
L 318.852775 72.401831 
L 315.872681 71.017787 
L 312.440673 69.17016 
L 308.440329 66.756905 
L 303.851675 63.731491 
L 301.347601 61.822075 
L 297.79981 58.808465 
L 289.97409 52.07881 
L 286.91562 49.774274 
L 284.246577 48.030324 
L 281.838048 46.71443 
L 279.54441 45.718845 
L 277.374776 45.030227 
L 275.337725 44.623768 
L 273.441284 44.465949 
L 271.516774 44.532973 
L 269.742708 44.804869 
L 267.945155 45.292311 
L 266.123977 46.009454 
L 264.279035 46.970453 
L 262.810704 47.948855 
L 261.705527 48.943942 
L 260.82277 50.02967 
L 260.15468 51.200073 
L 259.693502 52.449183 
L 259.431484 53.771033 
L 259.360872 55.159657 
L 259.510062 56.856151 
L 259.896911 58.625934 
L 260.509106 60.45953 
L 261.468898 62.621052 
L 262.688559 64.839401 
L 264.348419 67.385358 
L 266.287747 69.965198 
L 268.738499 72.846931 
L 271.466072 75.718005 
L 274.743286 78.830905 
L 278.26424 81.860712 
L 281.981156 84.770658 
L 285.846256 87.523973 
L 289.811762 90.083887 
L 293.829897 92.413631 
L 297.852882 94.476436 
L 301.474148 96.089132 
L 305.02404 97.423203 
L 308.128251 98.362812 
L 311.119405 99.03422 
L 313.662142 99.389591 
L 316.076496 99.502993 
L 318.069293 99.392611 
L 320.130691 99.040594 
L 322.607647 98.38366 
L 324.647709 97.623189 
L 326.440121 96.718656 
L 327.895343 95.748192 
L 329.160976 94.650571 
L 330.248549 93.424377 
L 331.169591 92.068196 
L 331.988467 90.460698 
L 332.641978 88.699035 
L 333.175023 86.638455 
L 333.592 84.083988 
L 333.844329 81.122091 
L 333.932897 77.327301 
L 333.813712 72.325441 
L 333.355991 63.961567 
L 333.115451 62.146842 
L 332.691321 60.569142 
L 332.100581 59.208226 
L 331.360217 58.043853 
L 330.487211 57.055781 
L 329.382293 56.140079 
L 328.029766 55.322199 
L 326.425819 54.614107 
L 324.292136 53.927978 
L 320.619997 53.035122 
L 317.383621 52.168599 
L 315.604973 51.471373 
L 314.255014 50.700743 
L 313.283911 49.89991 
L 312.550095 49.031322 
L 311.96669 48.001684 
L 311.550679 46.790757 
L 311.319045 45.378299 
L 311.288771 43.74407 
L 311.476842 41.867827 
L 311.962547 39.474652 
L 312.762075 36.729942 
L 314.028098 32.640981 
L 314.113728 31.268271 
L 313.976592 29.934566 
L 313.63067 28.643968 
L 313.009347 27.248679 
L 312.161372 25.918978 
L 311.106649 24.660707 
L 309.71646 23.353506 
L 308.1229 22.149709 
L 306.167675 20.954526 
L 304.035744 19.904819 
L 301.551171 18.938129 
L 298.946729 18.171099 
L 296.269594 17.617574 
L 293.566944 17.291395 
L 291.107395 17.20394 
L 288.702388 17.329815 
L 286.388261 17.679682 
L 284.393951 18.201088 
L 282.532083 18.924436 
L 280.992205 19.75473 
L 279.601622 20.760925 
L 278.506973 21.807712 
L 277.559991 23.002198 
L 276.774653 24.348486 
L 276.164939 25.850677 
L 274.534979 30.628284 
L 273.6081 32.335792 
L 272.564949 33.809577 
L 271.418206 35.071582 
L 270.052273 36.241372 
L 268.456534 37.289855 
L 266.62816 38.200434 
L 264.574385 38.972958 
L 261.859441 39.7439 
L 253.514135 41.926827 
L 251.709957 42.726457 
L 250.295317 43.589264 
L 249.125219 44.558268 
L 248.181269 45.612355 
L 247.364491 46.854045 
L 246.687565 48.305281 
L 246.163171 49.988009 
L 245.790193 52.012195 
L 245.557309 54.560729 
L 245.568171 56.795959 
L 245.800335 58.880576 
L 246.216259 60.688986 
L 246.82415 62.363628 
L 247.623614 63.903262 
L 248.614259 65.306646 
L 249.795693 66.572541 
L 251.167522 67.699707 
L 252.729355 68.686904 
L 254.480798 69.532892 
L 256.567308 70.281199 
L 258.87055 70.864456 
L 261.565684 71.302955 
L 264.506275 71.550077 
L 267.898946 71.600879 
L 271.567351 71.431325 
L 273.666123 71.176669 
L 275.498915 70.720137 
L 277.269625 70.057413 
L 278.971231 69.201477 
L 280.794194 68.023765 
L 282.510813 66.636431 
L 284.11109 65.057961 
L 285.585028 63.306836 
L 286.922628 61.40154 
L 288.236789 59.126207 
L 289.356575 56.708713 
L 290.268272 54.17441 
L 290.958166 51.548654 
L 291.378093 49.128236 
L 291.597254 46.672761 
L 291.60565 44.200711 
L 291.393284 41.730571 
L 290.950158 39.280822 
L 290.266273 36.869949 
L 289.448176 34.774528 
L 288.42493 32.737409 
L 287.189512 30.771573 
L 285.734902 28.890001 
L 284.054076 27.105675 
L 282.140015 25.431575 
L 279.985695 23.880684 
L 277.584095 22.465982 
L 275.274329 21.35004 
L 272.765159 20.357004 
L 270.051881 19.49557 
L 267.029364 18.772251 
L 264.547637 18.423888 
L 261.817115 18.263042 
L 258.845196 18.306578 
L 255.499039 18.585378 
L 251.943723 19.111926 
L 248.214787 19.891026 
L 244.358349 20.922414 
L 240.43222 22.200117 
L 236.50706 23.711779 
L 232.795379 25.376176 
L 229.753484 26.966095 
L 226.785945 28.784293 
L 223.537498 31.042064 
L 220.063112 33.73828 
L 216.568266 36.733508 
L 213.144786 39.955202 
L 209.902064 43.31139 
L 207.143053 46.476099 
L 204.909571 49.363151 
L 203.445327 51.547085 
L 203.445327 51.547085 
" clip-path="url(#p5cbff41f17)" style="fill: none; stroke: #2c3e50; stroke-width: 2; stroke-linecap: round"/>
   </g>
   <g id="patch_6">
    <path d="M 301.681539 80.664214 
Q 337.337677 93.641987 370.997659 105.893219 
" style="fill: none; stroke: #8e44ad; stroke-width: 1.9; stroke-linecap: round"/>
    <path d="M 367.00051 101.671513 
L 370.997659 105.893219 
L 365.222005 106.557915 
z
" style="fill: #8e44ad; stroke: #8e44ad; stroke-width: 1.9; stroke-linecap: round"/>
   </g>
   <g id="text_2">
    <!-- χ = +1 -->
    <g style="fill: #2c3e50" transform="translate(254.944902 126.501823) scale(0.16 -0.16)">
     <use xlink:href="#DejaVuSans-Bold-3c7"/>
     <use xlink:href="#DejaVuSans-Bold-20" transform="translate(64.501953 0)"/>
     <use xlink:href="#DejaVuSans-Bold-3d" transform="translate(99.316406 0)"/>
     <use xlink:href="#DejaVuSans-Bold-20" transform="translate(183.105469 0)"/>
     <use xlink:href="#DejaVuSans-Bold-2b" transform="translate(217.919922 0)"/>
     <use xlink:href="#DejaVuSans-Bold-31" transform="translate(301.708984 0)"/>
    </g>
   </g>
   <g id="line2d_7">
    <g clip-path="url(#p5cbff41f17)">
     <use xlink:href="#mbc7b34c0af" x="355.318624" y="9.476629" style="fill: #ffffff; stroke: #2c3e50; stroke-width: 1.8"/>
    </g>
   </g>
   <g id="line2d_8">
    <g clip-path="url(#p5cbff41f17)">
     <use xlink:href="#mbc7b34c0af" x="203.445327" y="51.547085" style="fill: #ffffff; stroke: #2c3e50; stroke-width: 1.8"/>
    </g>
   </g>
   <g id="patch_7">
    <path d="M 264.194842 67.25269 
Q 265.611917 69.102795 265.669307 69.177721 
" style="fill: none; stroke: #2c3e50; stroke-width: 2; stroke-linecap: round"/>
    <path d="M 264.402539 62.59021 
L 265.669307 69.177721 
L 259.639238 66.238628 
z
" style="fill: #2c3e50; stroke: #2c3e50; stroke-width: 2; stroke-linecap: round"/>
   </g>
   <g id="patch_8">
    <path d="M 264.567433 39.030438 
Q 262.314906 39.628025 262.223682 39.652227 
" style="fill: none; stroke: #2c3e50; stroke-width: 2; stroke-linecap: round"/>
    <path d="M 268.792343 41.013362 
L 262.223682 39.652227 
L 267.253787 35.213979 
z
" style="fill: #2c3e50; stroke: #2c3e50; stroke-width: 2; stroke-linecap: round"/>
   </g>
   <g id="patch_9">
    <path d="M 240.90592 21.997698 
Q 238.727975 22.826878 238.639771 22.860459 
" style="fill: none; stroke: #2c3e50; stroke-width: 2; stroke-linecap: round"/>
    <path d="M 245.314546 23.529324 
L 238.639771 22.860459 
L 243.179728 17.921958 
z
" style="fill: #2c3e50; stroke: #2c3e50; stroke-width: 2; stroke-linecap: round"/>
   </g>
   <g id="line2d_9">
    <g clip-path="url(#p5cbff41f17)">
     <use xlink:href="#m88d477a16d" x="331.482382" y="91.510834" style="fill: #2980b9; stroke: #ffffff; stroke-width: 0.9"/>
    </g>
   </g>
   <g id="line2d_10">
    <g clip-path="url(#p5cbff41f17)">
     <use xlink:href="#m80790138cd" x="299.798215" y="79.97874" style="fill: #2c3e50; stroke: #2c3e50"/>
    </g>
   </g>
  </g>
  <g id="axes_3">
   <g id="line2d_11">
    <path d="M 544.901321 9.476629 
L 546.115551 11.693803 
L 547.147931 14.066435 
L 548.0039 16.577591 
L 548.754689 19.509636 
L 549.301859 22.568564 
L 549.652872 25.731148 
L 549.821328 29.301991 
L 549.771389 32.939236 
L 549.479499 36.946542 
L 548.952408 40.955941 
L 548.203008 44.927294 
L 547.24419 48.820464 
L 546.088844 52.595314 
L 544.749861 56.211704 
L 543.240133 59.629498 
L 541.71723 62.553734 
L 540.071614 65.246449 
L 538.313216 67.676729 
L 536.625157 69.632325 
L 534.859556 71.322253 
L 533.210381 72.596844 
L 531.509877 73.620496 
L 529.959623 74.306056 
L 528.37693 74.76807 
L 526.765616 74.994648 
L 522.275834 75.13087 
L 519.003745 75.029331 
L 516.295029 74.722457 
L 513.74056 74.20396 
L 511.176432 73.449943 
L 508.435472 72.401831 
L 505.455377 71.017787 
L 502.02337 69.17016 
L 498.023026 66.756905 
L 493.434372 63.731491 
L 490.930297 61.822075 
L 487.382506 58.808465 
L 479.556787 52.07881 
L 476.498317 49.774274 
L 473.829274 48.030324 
L 471.420744 46.71443 
L 469.127107 45.718845 
L 466.957472 45.030227 
L 464.920422 44.623768 
L 463.02398 44.465949 
L 461.09947 44.532973 
L 459.325405 44.804869 
L 457.527852 45.292311 
L 455.706673 46.009454 
L 453.861731 46.970453 
L 452.3934 47.948855 
L 451.288223 48.943942 
L 450.405467 50.02967 
L 449.737376 51.200073 
L 449.276199 52.449183 
L 449.014181 53.771033 
L 448.943568 55.159657 
L 449.092759 56.856151 
L 449.479608 58.625934 
L 450.091803 60.45953 
L 451.051594 62.621052 
L 452.271255 64.839401 
L 453.931115 67.385358 
L 455.870443 69.965198 
L 458.321196 72.846931 
L 461.048768 75.718005 
L 464.325982 78.830905 
L 467.846936 81.860712 
L 471.563852 84.770658 
L 475.428952 87.523973 
L 479.394458 90.083887 
L 483.412593 92.413631 
L 487.435579 94.476436 
L 491.056844 96.089132 
L 494.606736 97.423203 
L 497.710947 98.362812 
L 500.702101 99.03422 
L 503.244839 99.389591 
L 505.659193 99.502993 
L 507.65199 99.392611 
L 509.713388 99.040594 
L 512.190343 98.38366 
L 514.230405 97.623189 
L 516.022818 96.718656 
L 517.47804 95.748192 
L 518.743673 94.650571 
L 519.831245 93.424377 
L 520.752287 92.068196 
L 521.571164 90.460698 
L 522.224675 88.699035 
L 522.75772 86.638455 
L 523.174696 84.083988 
L 523.427025 81.122091 
L 523.515594 77.327301 
L 523.396409 72.325441 
L 522.938687 63.961567 
L 522.698148 62.146842 
L 522.274017 60.569142 
L 521.683278 59.208226 
L 520.942914 58.043853 
L 520.069908 57.055781 
L 518.964989 56.140079 
L 517.612463 55.322199 
L 516.008516 54.614107 
L 513.874832 53.927978 
L 510.202694 53.035122 
L 506.966317 52.168599 
L 505.18767 51.471373 
L 503.83771 50.700743 
L 502.866607 49.89991 
L 502.132791 49.031322 
L 501.549386 48.001684 
L 501.133375 46.790757 
L 500.901741 45.378299 
L 500.871468 43.74407 
L 501.059538 41.867827 
L 501.545243 39.474652 
L 502.344772 36.729942 
L 503.610795 32.640981 
L 503.696425 31.268271 
L 503.559289 29.934566 
L 503.213367 28.643968 
L 502.592043 27.248679 
L 501.744068 25.918978 
L 500.689346 24.660707 
L 499.299156 23.353506 
L 497.705596 22.149709 
L 495.750371 20.954526 
L 493.618441 19.904819 
L 491.133868 18.938129 
L 488.529425 18.171099 
L 485.85229 17.617574 
L 483.149641 17.291395 
L 480.690092 17.20394 
L 478.285084 17.329815 
L 475.970958 17.679682 
L 473.976648 18.201088 
L 472.11478 18.924436 
L 470.574902 19.75473 
L 469.184319 20.760925 
L 468.08967 21.807712 
L 467.142687 23.002198 
L 466.35735 24.348486 
L 465.747636 25.850677 
L 464.117676 30.628284 
L 463.190797 32.335792 
L 462.147646 33.809577 
L 461.000903 35.071582 
L 459.634969 36.241372 
L 458.039231 37.289855 
L 456.210856 38.200434 
L 454.157082 38.972958 
L 451.442138 39.7439 
L 443.096831 41.926827 
L 441.292654 42.726457 
L 439.878014 43.589264 
L 438.707916 44.558268 
L 437.763965 45.612355 
L 436.947187 46.854045 
L 436.270261 48.305281 
L 435.745867 49.988009 
L 435.372889 52.012195 
L 435.140006 54.560729 
L 435.150867 56.795959 
L 435.383031 58.880576 
L 435.798956 60.688986 
L 436.406846 62.363628 
L 437.206311 63.903262 
L 438.196956 65.306646 
L 439.37839 66.572541 
L 440.750219 67.699707 
L 442.312052 68.686904 
L 444.063495 69.532892 
L 446.150005 70.281199 
L 448.453247 70.864456 
L 451.148381 71.302955 
L 454.088972 71.550077 
L 457.481643 71.600879 
L 461.150048 71.431325 
L 463.24882 71.176669 
L 465.081612 70.720137 
L 466.852321 70.057413 
L 468.553927 69.201477 
L 470.37689 68.023765 
L 472.093509 66.636431 
L 473.693787 65.057961 
L 475.167724 63.306836 
L 476.505324 61.40154 
L 477.819485 59.126207 
L 478.939271 56.708713 
L 479.850968 54.17441 
L 480.540862 51.548654 
L 480.96079 49.128236 
L 481.179951 46.672761 
L 481.188347 44.200711 
L 480.975981 41.730571 
L 480.532854 39.280822 
L 479.84897 36.869949 
L 479.030873 34.774528 
L 478.007627 32.737409 
L 476.772209 30.771573 
L 475.317598 28.890001 
L 473.636773 27.105675 
L 471.722711 25.431575 
L 469.568391 23.880684 
L 467.166792 22.465982 
L 464.857025 21.35004 
L 462.347855 20.357004 
L 459.634578 19.49557 
L 456.612061 18.772251 
L 454.130333 18.423888 
L 451.399812 18.263042 
L 448.427892 18.306578 
L 445.081736 18.585378 
L 441.526419 19.111926 
L 437.797483 19.891026 
L 433.941046 20.922414 
L 430.014916 22.200117 
L 426.089757 23.711779 
L 422.378075 25.376176 
L 419.33618 26.966095 
L 416.368641 28.784293 
L 413.120195 31.042064 
L 409.645808 33.73828 
L 406.150963 36.733508 
L 402.727483 39.955202 
L 399.484761 43.31139 
L 396.725749 46.476099 
L 394.492268 49.363151 
L 393.028023 51.547085 
L 393.028023 51.547085 
" clip-path="url(#p52c03edb88)" style="fill: none; stroke: #2c3e50; stroke-width: 2; stroke-linecap: round"/>
   </g>
   <g id="patch_10">
    <path d="M 491.110728 78.98003 
Q 526.918871 58.306189 560.887347 38.69448 
" style="fill: none; stroke: #8e44ad; stroke-width: 1.9; stroke-linecap: round"/>
    <path d="M 555.084015 39.042814 
L 560.887347 38.69448 
L 557.684015 43.546147 
z
" style="fill: #8e44ad; stroke: #8e44ad; stroke-width: 1.9; stroke-linecap: round"/>
   </g>
   <g id="text_3">
    <!-- χ = +1 -->
    <g style="fill: #2c3e50" transform="translate(444.527598 126.501823) scale(0.16 -0.16)">
     <use xlink:href="#DejaVuSans-Bold-3c7"/>
     <use xlink:href="#DejaVuSans-Bold-20" transform="translate(64.501953 0)"/>
     <use xlink:href="#DejaVuSans-Bold-3d" transform="translate(99.316406 0)"/>
     <use xlink:href="#DejaVuSans-Bold-20" transform="translate(183.105469 0)"/>
     <use xlink:href="#DejaVuSans-Bold-2b" transform="translate(217.919922 0)"/>
     <use xlink:href="#DejaVuSans-Bold-31" transform="translate(301.708984 0)"/>
    </g>
   </g>
   <g id="line2d_12">
    <g clip-path="url(#p52c03edb88)">
     <use xlink:href="#mbc7b34c0af" x="544.901321" y="9.476629" style="fill: #ffffff; stroke: #2c3e50; stroke-width: 1.8"/>
    </g>
   </g>
   <g id="line2d_13">
    <g clip-path="url(#p52c03edb88)">
     <use xlink:href="#mbc7b34c0af" x="393.028023" y="51.547085" style="fill: #ffffff; stroke: #2c3e50; stroke-width: 1.8"/>
    </g>
   </g>
   <g id="patch_11">
    <path d="M 453.777539 67.25269 
Q 455.194614 69.102795 455.252003 69.177721 
" style="fill: none; stroke: #2c3e50; stroke-width: 2; stroke-linecap: round"/>
    <path d="M 453.985236 62.59021 
L 455.252003 69.177721 
L 449.221934 66.238628 
z
" style="fill: #2c3e50; stroke: #2c3e50; stroke-width: 2; stroke-linecap: round"/>
   </g>
   <g id="patch_12">
    <path d="M 454.150129 39.030438 
Q 451.897603 39.628025 451.806378 39.652227 
" style="fill: none; stroke: #2c3e50; stroke-width: 2; stroke-linecap: round"/>
    <path d="M 458.37504 41.013362 
L 451.806378 39.652227 
L 456.836483 35.213979 
z
" style="fill: #2c3e50; stroke: #2c3e50; stroke-width: 2; stroke-linecap: round"/>
   </g>
   <g id="patch_13">
    <path d="M 430.488617 21.997698 
Q 428.310671 22.826878 428.222468 22.860459 
" style="fill: none; stroke: #2c3e50; stroke-width: 2; stroke-linecap: round"/>
    <path d="M 434.897242 23.529324 
L 428.222468 22.860459 
L 432.762425 17.921958 
z
" style="fill: #2c3e50; stroke: #2c3e50; stroke-width: 2; stroke-linecap: round"/>
   </g>
   <g id="line2d_14">
    <g clip-path="url(#p52c03edb88)">
     <use xlink:href="#m88d477a16d" x="505.160121" y="70.868609" style="fill: #2980b9; stroke: #ffffff; stroke-width: 0.9"/>
    </g>
   </g>
   <g id="line2d_15">
    <g clip-path="url(#p52c03edb88)">
     <use xlink:href="#m88d477a16d" x="522.389733" y="60.921088" style="fill: #2980b9; stroke: #ffffff; stroke-width: 0.9"/>
    </g>
   </g>
   <g id="line2d_16">
    <defs>
     <path id="m3e084bda0e" d="M 0 3 
C 0.795609 3 1.55874 2.683901 2.12132 2.12132 
C 2.683901 1.55874 3 0.795609 3 0 
C 3 -0.795609 2.683901 -1.55874 2.12132 -2.12132 
C 1.55874 -2.683901 0.795609 -3 0 -3 
C -0.795609 -3 -1.55874 -2.683901 -2.12132 -2.12132 
C -2.683901 -1.55874 -3 -0.795609 -3 0 
C -3 0.795609 -2.683901 1.55874 -2.12132 2.12132 
C -1.55874 2.683901 -0.795609 3 0 3 
z
" style="stroke: #ffffff; stroke-width: 0.9"/>
    </defs>
    <g clip-path="url(#p52c03edb88)">
     <use xlink:href="#m3e084bda0e" x="547.918737" y="46.181911" style="fill: #e74c3c; stroke: #ffffff; stroke-width: 0.9"/>
    </g>
   </g>
   <g id="line2d_17">
    <g clip-path="url(#p52c03edb88)">
     <use xlink:href="#m80790138cd" x="489.380911" y="79.97874" style="fill: #2c3e50; stroke: #2c3e50"/>
    </g>
   </g>
  </g>
  <g id="axes_4">
   <g id="line2d_18">
    <path d="M 734.484017 9.476629 
L 735.698248 11.693803 
L 736.730628 14.066435 
L 737.586596 16.577591 
L 738.337385 19.509636 
L 738.884556 22.568564 
L 739.235569 25.731148 
L 739.404025 29.301991 
L 739.354085 32.939236 
L 739.062195 36.946542 
L 738.535105 40.955941 
L 737.785705 44.927294 
L 736.826886 48.820464 
L 735.67154 52.595314 
L 734.332558 56.211704 
L 732.822829 59.629498 
L 731.299926 62.553734 
L 729.654311 65.246449 
L 727.895912 67.676729 
L 726.207854 69.632325 
L 724.442252 71.322253 
L 722.793077 72.596844 
L 721.092573 73.620496 
L 719.54232 74.306056 
L 717.959626 74.76807 
L 716.348313 74.994648 
L 711.858531 75.13087 
L 708.586442 75.029331 
L 705.877725 74.722457 
L 703.323257 74.20396 
L 700.759128 73.449943 
L 698.018168 72.401831 
L 695.038074 71.017787 
L 691.606067 69.17016 
L 687.605722 66.756905 
L 683.017068 63.731491 
L 680.512994 61.822075 
L 676.965203 58.808465 
L 669.139483 52.07881 
L 666.081013 49.774274 
L 663.411971 48.030324 
L 661.003441 46.71443 
L 658.709803 45.718845 
L 656.540169 45.030227 
L 654.503118 44.623768 
L 652.606677 44.465949 
L 650.682167 44.532973 
L 648.908101 44.804869 
L 647.110548 45.292311 
L 645.28937 46.009454 
L 643.444428 46.970453 
L 641.976097 47.948855 
L 640.87092 48.943942 
L 639.988163 50.02967 
L 639.320073 51.200073 
L 638.858895 52.449183 
L 638.596877 53.771033 
L 638.526265 55.159657 
L 638.675455 56.856151 
L 639.062304 58.625934 
L 639.674499 60.45953 
L 640.634291 62.621052 
L 641.853952 64.839401 
L 643.513812 67.385358 
L 645.45314 69.965198 
L 647.903892 72.846931 
L 650.631465 75.718005 
L 653.908679 78.830905 
L 657.429633 81.860712 
L 661.146549 84.770658 
L 665.011649 87.523973 
L 668.977155 90.083887 
L 672.99529 92.413631 
L 677.018275 94.476436 
L 680.639541 96.089132 
L 684.189433 97.423203 
L 687.293644 98.362812 
L 690.284798 99.03422 
L 692.827535 99.389591 
L 695.241889 99.502993 
L 697.234686 99.392611 
L 699.296084 99.040594 
L 701.77304 98.38366 
L 703.813102 97.623189 
L 705.605514 96.718656 
L 707.060736 95.748192 
L 708.326369 94.650571 
L 709.413942 93.424377 
L 710.334984 92.068196 
L 711.15386 90.460698 
L 711.807371 88.699035 
L 712.340417 86.638455 
L 712.757393 84.083988 
L 713.009722 81.122091 
L 713.09829 77.327301 
L 712.979105 72.325441 
L 712.521384 63.961567 
L 712.280844 62.146842 
L 711.856714 60.569142 
L 711.265974 59.208226 
L 710.52561 58.043853 
L 709.652604 57.055781 
L 708.547686 56.140079 
L 707.195159 55.322199 
L 705.591212 54.614107 
L 703.457529 53.927978 
L 699.78539 53.035122 
L 696.549014 52.168599 
L 694.770366 51.471373 
L 693.420407 50.700743 
L 692.449304 49.89991 
L 691.715488 49.031322 
L 691.132083 48.001684 
L 690.716072 46.790757 
L 690.484438 45.378299 
L 690.454165 43.74407 
L 690.642235 41.867827 
L 691.12794 39.474652 
L 691.927468 36.729942 
L 693.193491 32.640981 
L 693.279121 31.268271 
L 693.141986 29.934566 
L 692.796063 28.643968 
L 692.17474 27.248679 
L 691.326765 25.918978 
L 690.272042 24.660707 
L 688.881853 23.353506 
L 687.288293 22.149709 
L 685.333068 20.954526 
L 683.201137 19.904819 
L 680.716564 18.938129 
L 678.112122 18.171099 
L 675.434987 17.617574 
L 672.732337 17.291395 
L 670.272788 17.20394 
L 667.867781 17.329815 
L 665.553654 17.679682 
L 663.559344 18.201088 
L 661.697476 18.924436 
L 660.157598 19.75473 
L 658.767015 20.760925 
L 657.672366 21.807712 
L 656.725384 23.002198 
L 655.940046 24.348486 
L 655.330332 25.850677 
L 653.700372 30.628284 
L 652.773493 32.335792 
L 651.730342 33.809577 
L 650.583599 35.071582 
L 649.217666 36.241372 
L 647.621927 37.289855 
L 645.793553 38.200434 
L 643.739778 38.972958 
L 641.024834 39.7439 
L 632.679528 41.926827 
L 630.87535 42.726457 
L 629.46071 43.589264 
L 628.290612 44.558268 
L 627.346662 45.612355 
L 626.529884 46.854045 
L 625.852958 48.305281 
L 625.328564 49.988009 
L 624.955586 52.012195 
L 624.722702 54.560729 
L 624.733564 56.795959 
L 624.965728 58.880576 
L 625.381652 60.688986 
L 625.989543 62.363628 
L 626.789007 63.903262 
L 627.779653 65.306646 
L 628.961086 66.572541 
L 630.332915 67.699707 
L 631.894748 68.686904 
L 633.646191 69.532892 
L 635.732701 70.281199 
L 638.035943 70.864456 
L 640.731077 71.302955 
L 643.671669 71.550077 
L 647.064339 71.600879 
L 650.732744 71.431325 
L 652.831516 71.176669 
L 654.664308 70.720137 
L 656.435018 70.057413 
L 658.136624 69.201477 
L 659.959587 68.023765 
L 661.676206 66.636431 
L 663.276483 65.057961 
L 664.750421 63.306836 
L 666.088021 61.40154 
L 667.402182 59.126207 
L 668.521968 56.708713 
L 669.433665 54.17441 
L 670.123559 51.548654 
L 670.543486 49.128236 
L 670.762647 46.672761 
L 670.771043 44.200711 
L 670.558677 41.730571 
L 670.115551 39.280822 
L 669.431667 36.869949 
L 668.61357 34.774528 
L 667.590323 32.737409 
L 666.354905 30.771573 
L 664.900295 28.890001 
L 663.219469 27.105675 
L 661.305408 25.431575 
L 659.151088 23.880684 
L 656.749488 22.465982 
L 654.439722 21.35004 
L 651.930552 20.357004 
L 649.217274 19.49557 
L 646.194757 18.772251 
L 643.71303 18.423888 
L 640.982509 18.263042 
L 638.010589 18.306578 
L 634.664432 18.585378 
L 631.109116 19.111926 
L 627.38018 19.891026 
L 623.523742 20.922414 
L 619.597613 22.200117 
L 615.672453 23.711779 
L 611.960772 25.376176 
L 608.918877 26.966095 
L 605.951338 28.784293 
L 602.702891 31.042064 
L 599.228505 33.73828 
L 595.733659 36.733508 
L 592.310179 39.955202 
L 589.067458 43.31139 
L 586.308446 46.476099 
L 584.074965 49.363151 
L 582.61072 51.547085 
L 582.61072 51.547085 
" clip-path="url(#pbb9649fdb4)" style="fill: none; stroke: #2c3e50; stroke-width: 2; stroke-linecap: round"/>
   </g>
   <g id="patch_14">
    <path d="M 679.648225 78.097771 
Q 692.676413 42.303117 704.97806 8.504619 
" style="fill: none; stroke: #8e44ad; stroke-width: 1.9; stroke-linecap: round"/>
    <path d="M 700.756355 12.501768 
L 704.97806 8.504619 
L 705.642757 14.280273 
z
" style="fill: #8e44ad; stroke: #8e44ad; stroke-width: 1.9; stroke-linecap: round"/>
   </g>
   <g id="text_4">
    <!-- χ = +2 -->
    <g style="fill: #2c3e50" transform="translate(634.110295 126.501823) scale(0.16 -0.16)">
     <defs>
      <path id="DejaVuSans-Bold-32" d="M 1844 884 
L 3897 884 
L 3897 0 
L 506 0 
L 506 884 
L 2209 2388 
Q 2438 2594 2547 2791 
Q 2656 2988 2656 3200 
Q 2656 3528 2436 3728 
Q 2216 3928 1850 3928 
Q 1569 3928 1234 3808 
Q 900 3688 519 3450 
L 519 4475 
Q 925 4609 1322 4679 
Q 1719 4750 2100 4750 
Q 2938 4750 3402 4381 
Q 3866 4013 3866 3353 
Q 3866 2972 3669 2642 
Q 3472 2313 2841 1759 
L 1844 884 
z
" transform="scale(0.015625)"/>
     </defs>
     <use xlink:href="#DejaVuSans-Bold-3c7"/>
     <use xlink:href="#DejaVuSans-Bold-20" transform="translate(64.501953 0)"/>
     <use xlink:href="#DejaVuSans-Bold-3d" transform="translate(99.316406 0)"/>
     <use xlink:href="#DejaVuSans-Bold-20" transform="translate(183.105469 0)"/>
     <use xlink:href="#DejaVuSans-Bold-2b" transform="translate(217.919922 0)"/>
     <use xlink:href="#DejaVuSans-Bold-32" transform="translate(301.708984 0)"/>
    </g>
   </g>
   <g id="line2d_19">
    <g clip-path="url(#pbb9649fdb4)">
     <use xlink:href="#mbc7b34c0af" x="734.484017" y="9.476629" style="fill: #ffffff; stroke: #2c3e50; stroke-width: 1.8"/>
    </g>
   </g>
   <g id="line2d_20">
    <g clip-path="url(#pbb9649fdb4)">
     <use xlink:href="#mbc7b34c0af" x="582.61072" y="51.547085" style="fill: #ffffff; stroke: #2c3e50; stroke-width: 1.8"/>
    </g>
   </g>
   <g id="patch_15">
    <path d="M 643.360235 67.25269 
Q 644.77731 69.102795 644.8347 69.177721 
" style="fill: none; stroke: #2c3e50; stroke-width: 2; stroke-linecap: round"/>
    <path d="M 643.567933 62.59021 
L 644.8347 69.177721 
L 638.804631 66.238628 
z
" style="fill: #2c3e50; stroke: #2c3e50; stroke-width: 2; stroke-linecap: round"/>
   </g>
   <g id="patch_16">
    <path d="M 643.732826 39.030438 
Q 641.480299 39.628025 641.389075 39.652227 
" style="fill: none; stroke: #2c3e50; stroke-width: 2; stroke-linecap: round"/>
    <path d="M 647.957736 41.013362 
L 641.389075 39.652227 
L 646.41918 35.213979 
z
" style="fill: #2c3e50; stroke: #2c3e50; stroke-width: 2; stroke-linecap: round"/>
   </g>
   <g id="patch_17">
    <path d="M 620.071313 21.997698 
Q 617.893368 22.826878 617.805164 22.860459 
" style="fill: none; stroke: #2c3e50; stroke-width: 2; stroke-linecap: round"/>
    <path d="M 624.479939 23.529324 
L 617.805164 22.860459 
L 622.345121 17.921958 
z
" style="fill: #2c3e50; stroke: #2c3e50; stroke-width: 2; stroke-linecap: round"/>
   </g>
   <g id="line2d_21">
    <g clip-path="url(#pbb9649fdb4)">
     <use xlink:href="#m88d477a16d" x="684.508312" y="64.744791" style="fill: #2980b9; stroke: #ffffff; stroke-width: 0.9"/>
    </g>
   </g>
   <g id="line2d_22">
    <g clip-path="url(#pbb9649fdb4)">
     <use xlink:href="#m88d477a16d" x="690.859916" y="47.293903" style="fill: #2980b9; stroke: #ffffff; stroke-width: 0.9"/>
    </g>
   </g>
   <g id="line2d_23">
    <g clip-path="url(#pbb9649fdb4)">
     <use xlink:href="#m80790138cd" x="678.963608" y="79.97874" style="fill: #2c3e50; stroke: #2c3e50"/>
    </g>
   </g>
  </g>
 </g>
 <defs>
  <clipPath id="pbcd0ad9cf6">
   <rect x="3.03552" y="2.82509" width="184.06087" height="108.2711"/>
  </clipPath>
  <clipPath id="p5cbff41f17">
   <rect x="192.618217" y="2.82509" width="184.06087" height="108.2711"/>
  </clipPath>
  <clipPath id="p52c03edb88">
   <rect x="382.200913" y="2.82509" width="184.06087" height="108.2711"/>
  </clipPath>
  <clipPath id="pbb9649fdb4">
   <rect x="571.78361" y="2.82509" width="184.06087" height="108.2711"/>
  </clipPath>
 </defs>
</svg>
